<svg width="50" height="50" viewBox="0 0 50 50" fill="none" xmlns="http://www.w3.org/2000/svg">
<path d="M25 33.25C25 33.25 15.625 28 15.625 21.625C15.6252 20.4983 16.0156 19.4064 16.7299 18.5349C17.4442 17.6635 18.4382 17.0664 19.543 16.845C20.6478 16.6237 21.7951 16.7918 22.79 17.3208C23.7848 17.8498 24.5658 18.707 25 19.7467L25 19.7467C25.4342 18.707 26.2152 17.8498 27.21 17.3208C28.2049 16.7918 29.3522 16.6237 30.457 16.845C31.5618 17.0664 32.5558 17.6635 33.2701 18.5349C33.9844 19.4064 34.3748 20.4983 34.375 21.625C34.375 28 25 33.25 25 33.25Z" stroke="#00AAFF" stroke-width="1.6" stroke-linecap="round" stroke-linejoin="round"/>
</svg>
