<svg width="150" height="54" viewBox="0 0 150 54" fill="none" xmlns="http://www.w3.org/2000/svg">
<path d="M15.8408 21.6768H37.5175" stroke="#00AAFF" stroke-width="3.33488" stroke-linecap="round" stroke-linejoin="round"/>
<path d="M15.8408 28.3467H37.5175" stroke="#00AAFF" stroke-width="3.33488" stroke-linecap="round" stroke-linejoin="round"/>
<path d="M6.66992 43.3532V11.6718C6.66992 11.2296 6.8456 10.8055 7.1583 10.4928C7.47101 10.1801 7.89513 10.0044 8.33736 10.0044H45.021C45.4632 10.0044 45.8874 10.1801 46.2001 10.4928C46.5128 10.8055 46.6884 11.2296 46.6884 11.6718V43.3532L40.0187 40.0183L33.3489 43.3532L26.6792 40.0183L20.0094 43.3532L13.3397 40.0183L6.66992 43.3532Z" stroke="#00AAFF" stroke-width="3.33488" stroke-linecap="round" stroke-linejoin="round"/>
<path d="M74.7298 37.4905C72.6132 37.4905 70.7561 37.0236 69.1583 36.0898C67.5813 35.156 66.357 33.8488 65.4855 32.168C64.614 30.4665 64.1782 28.4744 64.1782 26.1919C64.1782 23.8886 64.614 21.8966 65.4855 20.2158C66.357 18.535 67.5813 17.2381 69.1583 16.3251C70.7353 15.3913 72.5925 14.9244 74.7298 14.9244C76.8671 14.9244 78.7242 15.3913 80.3012 16.3251C81.8783 17.2381 83.1025 18.535 83.9741 20.2158C84.8456 21.8966 85.2813 23.8782 85.2813 26.1608C85.2813 28.4641 84.8456 30.4665 83.9741 32.168C83.1025 33.8488 81.8783 35.156 80.3012 36.0898C78.7242 37.0236 76.8671 37.4905 74.7298 37.4905ZM74.7298 34.0666C76.7426 34.0666 78.3092 33.3715 79.4297 31.9812C80.5502 30.591 81.1105 28.6612 81.1105 26.1919C81.1105 23.7018 80.5502 21.7721 79.4297 20.4025C78.33 19.033 76.7633 18.3483 74.7298 18.3483C72.717 18.3483 71.1503 19.033 70.0298 20.4025C68.9093 21.7721 68.349 23.7018 68.349 26.1919C68.349 28.6612 68.9093 30.591 70.0298 31.9812C71.1503 33.3715 72.717 34.0666 74.7298 34.0666ZM88.959 37.1792V21.9588H92.7563V24.3244C93.2751 23.4528 93.9702 22.7888 94.8417 22.3323C95.734 21.8758 96.73 21.6476 97.8298 21.6476C101.42 21.6476 103.214 23.733 103.214 27.9038V37.1792H99.3238V28.0905C99.3238 26.9078 99.0955 26.0466 98.639 25.5071C98.2033 24.9676 97.5185 24.6979 96.5848 24.6979C95.4435 24.6979 94.5305 25.061 93.8457 25.7873C93.1817 26.4928 92.8497 27.4369 92.8497 28.6197V37.1792H88.959ZM114.667 37.4905C112.945 37.4905 111.462 37.1688 110.217 36.5256C108.971 35.8823 108.007 34.9693 107.322 33.7865C106.658 32.6037 106.326 31.2031 106.326 29.5846C106.326 28.0075 106.647 26.6276 107.291 25.4449C107.955 24.2621 108.857 23.3387 109.999 22.6747C111.161 21.9899 112.478 21.6476 113.952 21.6476C116.11 21.6476 117.811 22.3323 119.056 23.7018C120.322 25.0714 120.955 26.9389 120.955 29.3044V30.4561H110.061C110.351 33.1744 111.908 34.5335 114.73 34.5335C115.58 34.5335 116.431 34.409 117.282 34.16C118.133 33.8903 118.911 33.4753 119.616 32.915L120.706 35.5295C119.98 36.1313 119.067 36.6086 117.967 36.9613C116.867 37.3141 115.767 37.4905 114.667 37.4905ZM114.107 24.2932C112.966 24.2932 112.043 24.646 111.337 25.3515C110.632 26.057 110.206 27.0115 110.061 28.215H117.718C117.635 26.9493 117.282 25.9844 116.66 25.3204C116.058 24.6356 115.207 24.2932 114.107 24.2932ZM129.607 37.4905C128.321 37.4905 127.117 37.3348 125.997 37.0236C124.876 36.7123 123.943 36.2662 123.196 35.6852L124.192 33.1329C124.959 33.6516 125.821 34.0563 126.775 34.3468C127.73 34.6165 128.684 34.7514 129.639 34.7514C130.635 34.7514 131.371 34.5854 131.849 34.2534C132.347 33.9006 132.596 33.4441 132.596 32.8839C132.596 32.0124 131.952 31.4521 130.666 31.2031L127.553 30.6117C124.918 30.1137 123.6 28.7442 123.6 26.5031C123.6 25.5071 123.87 24.646 124.41 23.9197C124.97 23.1935 125.738 22.6332 126.713 22.2389C127.688 21.8447 128.809 21.6476 130.074 21.6476C131.153 21.6476 132.191 21.8032 133.187 22.1144C134.183 22.405 135.034 22.8511 135.739 23.4528L134.681 26.0051C134.079 25.5071 133.353 25.1129 132.502 24.8224C131.672 24.5319 130.873 24.3866 130.105 24.3866C129.089 24.3866 128.331 24.563 127.833 24.9157C127.356 25.2685 127.117 25.7354 127.117 26.3164C127.117 27.2294 127.709 27.7897 128.892 27.9972L132.004 28.5886C133.353 28.8376 134.37 29.2941 135.054 29.9581C135.76 30.6221 136.113 31.5144 136.113 32.6349C136.113 34.1496 135.521 35.3428 134.339 36.2143C133.156 37.0651 131.579 37.4905 129.607 37.4905ZM146.054 37.4905C142.029 37.4905 140.016 35.4984 140.016 31.5144V24.8846H137.09V21.9588H140.016V17.4145H143.906V21.9588H148.513V24.8846H143.906V31.2965C143.906 32.2925 144.124 33.0395 144.56 33.5375C144.996 34.0355 145.701 34.2845 146.677 34.2845C146.967 34.2845 147.268 34.2534 147.579 34.1911C147.891 34.1081 148.212 34.0251 148.544 33.9421L149.136 36.8057C148.762 37.0132 148.285 37.1792 147.704 37.3037C147.144 37.4282 146.594 37.4905 146.054 37.4905Z" fill="white"/>
</svg>
