<svg width="135" height="48" viewBox="0 0 135 48" fill="none" xmlns="http://www.w3.org/2000/svg">
<path d="M14.25 19.5H33.75" stroke="#00AAFF" stroke-width="3" stroke-linecap="round" stroke-linejoin="round"/>
<path d="M14.25 25.5H33.75" stroke="#00AAFF" stroke-width="3" stroke-linecap="round" stroke-linejoin="round"/>
<path d="M6 39V10.5C6 10.1022 6.15804 9.72064 6.43934 9.43934C6.72064 9.15804 7.10218 9 7.5 9H40.5C40.8978 9 41.2794 9.15804 41.5607 9.43934C41.842 9.72064 42 10.1022 42 10.5V39L36 36L30 39L24 36L18 39L12 36L6 39Z" stroke="#00AAFF" stroke-width="3" stroke-linecap="round" stroke-linejoin="round"/>
<path d="M67.0938 33.28C65.1898 33.28 63.5192 32.86 62.0818 32.02C60.6632 31.18 59.5618 30.004 58.7778 28.492C57.9938 26.9613 57.6018 25.1693 57.6018 23.116C57.6018 21.044 57.9938 19.252 58.7778 17.74C59.5618 16.228 60.6632 15.0613 62.0818 14.24C63.5005 13.4 65.1712 12.98 67.0938 12.98C69.0165 12.98 70.6872 13.4 72.1058 14.24C73.5245 15.0613 74.6258 16.228 75.4098 17.74C76.1938 19.252 76.5858 21.0347 76.5858 23.088C76.5858 25.16 76.1938 26.9613 75.4098 28.492C74.6258 30.004 73.5245 31.18 72.1058 32.02C70.6872 32.86 69.0165 33.28 67.0938 33.28ZM67.0938 30.2C68.9045 30.2 70.3138 29.5747 71.3218 28.324C72.3298 27.0733 72.8338 25.3373 72.8338 23.116C72.8338 20.876 72.3298 19.14 71.3218 17.908C70.3325 16.676 68.9232 16.06 67.0938 16.06C65.2832 16.06 63.8738 16.676 62.8658 17.908C61.8578 19.14 61.3538 20.876 61.3538 23.116C61.3538 25.3373 61.8578 27.0733 62.8658 28.324C63.8738 29.5747 65.2832 30.2 67.0938 30.2ZM79.8942 33V19.308H83.3102V21.436C83.7769 20.652 84.4022 20.0547 85.1862 19.644C85.9889 19.2333 86.8849 19.028 87.8742 19.028C91.1036 19.028 92.7182 20.904 92.7182 24.656V33H89.2182V24.824C89.2182 23.76 89.0129 22.9853 88.6022 22.5C88.2102 22.0147 87.5942 21.772 86.7542 21.772C85.7276 21.772 84.9062 22.0987 84.2902 22.752C83.6929 23.3867 83.3942 24.236 83.3942 25.3V33H79.8942ZM103.021 33.28C101.472 33.28 100.137 32.9907 99.0171 32.412C97.8971 31.8333 97.0291 31.012 96.4131 29.948C95.8158 28.884 95.5171 27.624 95.5171 26.168C95.5171 24.7493 95.8065 23.508 96.3851 22.444C96.9825 21.38 97.7945 20.5493 98.8211 19.952C99.8665 19.336 101.052 19.028 102.377 19.028C104.318 19.028 105.849 19.644 106.969 20.876C108.108 22.108 108.677 23.788 108.677 25.916V26.952H98.8771C99.1385 29.3973 100.538 30.62 103.077 30.62C103.842 30.62 104.608 30.508 105.373 30.284C106.138 30.0413 106.838 29.668 107.473 29.164L108.453 31.516C107.8 32.0573 106.978 32.4867 105.989 32.804C105 33.1213 104.01 33.28 103.021 33.28ZM102.517 21.408C101.49 21.408 100.66 21.7253 100.025 22.36C99.3905 22.9947 99.0078 23.8533 98.8771 24.936H105.765C105.69 23.7973 105.373 22.9293 104.813 22.332C104.272 21.716 103.506 21.408 102.517 21.408ZM116.461 33.28C115.304 33.28 114.221 33.14 113.213 32.86C112.205 32.58 111.365 32.1787 110.693 31.656L111.589 29.36C112.28 29.8267 113.054 30.1907 113.913 30.452C114.772 30.6947 115.63 30.816 116.489 30.816C117.385 30.816 118.048 30.6667 118.477 30.368C118.925 30.0507 119.149 29.64 119.149 29.136C119.149 28.352 118.57 27.848 117.413 27.624L114.613 27.092C112.242 26.644 111.057 25.412 111.057 23.396C111.057 22.5 111.3 21.7253 111.785 21.072C112.289 20.4187 112.98 19.9147 113.857 19.56C114.734 19.2053 115.742 19.028 116.881 19.028C117.852 19.028 118.785 19.168 119.681 19.448C120.577 19.7093 121.342 20.1107 121.977 20.652L121.025 22.948C120.484 22.5 119.83 22.1453 119.065 21.884C118.318 21.6227 117.6 21.492 116.909 21.492C115.994 21.492 115.313 21.6507 114.865 21.968C114.436 22.2853 114.221 22.7053 114.221 23.228C114.221 24.0493 114.753 24.5533 115.817 24.74L118.617 25.272C119.83 25.496 120.745 25.9067 121.361 26.504C121.996 27.1013 122.313 27.904 122.313 28.912C122.313 30.2747 121.781 31.348 120.717 32.132C119.653 32.8973 118.234 33.28 116.461 33.28ZM131.256 33.28C127.635 33.28 125.824 31.488 125.824 27.904V21.94H123.192V19.308H125.824V15.22H129.324V19.308H133.468V21.94H129.324V27.708C129.324 28.604 129.52 29.276 129.912 29.724C130.304 30.172 130.939 30.396 131.816 30.396C132.077 30.396 132.348 30.368 132.628 30.312C132.908 30.2373 133.197 30.1627 133.496 30.088L134.028 32.664C133.692 32.8507 133.263 33 132.74 33.112C132.236 33.224 131.741 33.28 131.256 33.28Z" fill="#FFFFFF"/>
</svg>
