<svg width="50" height="50" viewBox="0 0 50 50" fill="none" xmlns="http://www.w3.org/2000/svg">
<g clip-path="url(#clip0_750_42353)">
<path d="M9.375 27.2632V40.6249C9.375 41.0393 9.53962 41.4367 9.83265 41.7297C10.1257 42.0228 10.5231 42.1874 10.9375 42.1874H39.0625C39.4769 42.1874 39.8743 42.0228 40.1674 41.7297C40.4604 41.4367 40.625 41.0393 40.625 40.6249V27.2635" stroke="#00AAFF" stroke-width="2" stroke-linecap="round" stroke-linejoin="round"/>
<path d="M10.5536 7.8125H39.4464C39.786 7.8125 40.1163 7.92311 40.3873 8.12758C40.6584 8.33205 40.8555 8.61927 40.9488 8.94575L43.75 18.75H6.25L9.05121 8.94575C9.1445 8.61927 9.34159 8.33205 9.61267 8.12758C9.88374 7.92311 10.214 7.8125 10.5536 7.8125Z" stroke="#00AAFF" stroke-width="2" stroke-linecap="round" stroke-linejoin="round"/>
<path d="M18.75 18.75V21.875C18.75 23.5326 18.0915 25.1223 16.9194 26.2944C15.7473 27.4665 14.1576 28.125 12.5 28.125C10.8424 28.125 9.25268 27.4665 8.08058 26.2944C6.90848 25.1223 6.25 23.5326 6.25 21.875V18.75" stroke="#00AAFF" stroke-width="2" stroke-linecap="round" stroke-linejoin="round"/>
<path d="M31.25 18.75V21.875C31.25 23.5326 30.5915 25.1223 29.4194 26.2944C28.2473 27.4665 26.6576 28.125 25 28.125C23.3424 28.125 21.7527 27.4665 20.5806 26.2944C19.4085 25.1223 18.75 23.5326 18.75 21.875V18.75" stroke="#00AAFF" stroke-width="2" stroke-linecap="round" stroke-linejoin="round"/>
<path d="M43.75 18.75V21.875C43.75 23.5326 43.0915 25.1223 41.9194 26.2944C40.7473 27.4665 39.1576 28.125 37.5 28.125C35.8424 28.125 34.2527 27.4665 33.0806 26.2944C31.9085 25.1223 31.25 23.5326 31.25 21.875V18.75" stroke="#00AAFF" stroke-width="2" stroke-linecap="round" stroke-linejoin="round"/>
</g>
<defs>
<clipPath id="clip0_750_42353">
<rect width="50" height="50" fill="white"/>
</clipPath>
</defs>
</svg>
