<svg width="50" height="50" viewBox="0 0 50 50" fill="none" xmlns="http://www.w3.org/2000/svg">
<g clip-path="url(#clip0_750_42255)">
<path opacity="0.2" d="M25 31.25C31.9036 31.25 37.5 25.6536 37.5 18.75C37.5 11.8464 31.9036 6.25 25 6.25C18.0964 6.25 12.5 11.8464 12.5 18.75C12.5 25.6536 18.0964 31.25 25 31.25Z" fill="#FF4F4F"/>
<path d="M34.375 10.9375H43.75" stroke="#FF4F4F" stroke-width="2.5" stroke-linecap="round" stroke-linejoin="round"/>
<path d="M39.0625 6.25V15.625" stroke="#FF4F4F" stroke-width="2.5" stroke-linecap="round" stroke-linejoin="round"/>
<path d="M6.05273 42.1857C7.97375 38.8606 10.736 36.0996 14.0619 34.18C17.3878 32.2605 21.1603 31.25 25.0004 31.25C28.8405 31.25 32.613 32.2606 35.9389 34.1803C39.2648 36.0999 42.0269 38.8609 43.9479 42.1861" stroke="#FF4F4F" stroke-width="2.5" stroke-linecap="round" stroke-linejoin="round"/>
<path d="M36.7287 23.0826C35.8932 25.3386 34.424 27.3054 32.4978 28.7467C30.5715 30.188 28.2701 31.0424 25.87 31.2075C23.4699 31.3725 21.0732 30.8411 18.9678 29.677C16.8624 28.5129 15.1379 26.7657 14.0014 24.6453C12.865 22.5249 12.3649 20.1215 12.5612 17.7237C12.7576 15.326 13.642 13.0359 15.1084 11.1287C16.5747 9.22143 18.5605 7.77809 20.8272 6.97207C23.0939 6.16604 25.5452 6.03161 27.8864 6.58493" stroke="#FF4F4F" stroke-width="2.5" stroke-linecap="round" stroke-linejoin="round"/>
</g>
<defs>
<clipPath id="clip0_750_42255">
<rect width="50" height="50" fill="white"/>
</clipPath>
</defs>
</svg>
