<svg width="50" height="50" viewBox="0 0 50 50" fill="none" xmlns="http://www.w3.org/2000/svg">
<g clip-path="url(#clip0_750_42364)">
<path d="M36.1312 7.23968L27.9355 15.4354L29.0404 20.9596L34.5646 22.0645L42.7603 13.8688L42.7611 13.8685C43.7755 16.2631 44.0181 18.9143 43.4552 21.4533C42.8922 23.9922 41.5517 26.2925 39.6202 28.0338C37.6887 29.7752 35.2623 30.8711 32.6788 31.1689C30.0953 31.4667 27.4832 30.9516 25.2062 29.6954L25.2064 29.6949L14.2521 42.377C13.3729 43.2552 12.1809 43.7484 10.9381 43.748C9.69538 43.7477 8.50364 43.2539 7.62489 42.3751C6.74614 41.4964 6.25231 40.3046 6.25195 39.0619C6.2516 37.8191 6.74475 36.6271 7.623 35.7479L20.3049 24.7937L20.3046 24.7938C19.0484 22.5168 18.5333 19.9047 18.8311 17.3212C19.1289 14.7377 20.2248 12.3113 21.9661 10.3798C23.7075 8.44832 26.0078 7.10778 28.5467 6.54481C31.0856 5.98185 33.7369 6.22446 36.1315 7.23889L36.1312 7.23968Z" stroke="#00AAFF" stroke-width="2" stroke-linecap="round" stroke-linejoin="round"/>
</g>
<defs>
<clipPath id="clip0_750_42364">
<rect width="50" height="50" fill="white"/>
</clipPath>
</defs>
</svg>
